# xmcd
#
# Track frame offsets: 
#        150
#        36449
#        63448
#        99747
#        125397
#        152247
#        187497
#        204372
#
# Disc length: 2907 seconds
#
# Revision: 1
# Processed by: cddbd v1.5.2PL0 Copyright (c) Steve Scherf et al.
# Submitted via: ExactAudioCopy v0.99pb5
#
DISCID=760b5908
DTITLE=Impiety - Ravage and Conquer
DYEAR=2012
DGENRE=Black Metal
TTITLE0=Revelation Decimation
TTITLE1=Ravage and Conquer
TTITLE2=Weaponized
TTITLE3=The Scourge Majesty
TTITLE4=War Crowned
TTITLE5=Legacy of Savagery
TTITLE6=Salve the Goat
TTITLE7=Sacrifice (Bathory Cover)
EXTD=
EXTT0=
EXTT1=
EXTT2=
EXTT3=
EXTT4=
EXTT5=
EXTT6=
EXTT7=
PLAYORDER=
